# xmcd
# Copyright (C) 1995-1998 Ti Kan
#
# Track frame offsets:
#       150
#       11115
#       22556
#       34737
#       47399
#       62391
#       76036
#       86499
#       100758
#       110605
#       126074
#       137967
#       149865
#
# Disc length: 2199 seconds
#
# Revision: 0
# Processed by: cddbd v1.5.2PL0 Copyright (c) Steve Scherf et al.
# Submitted via: CD-Transfer v1.0
#
DISCID=9e08950d
DTITLE=Ensemble Osttirol - 
DYEAR=1900
DGENRE=
TTITLE0=Wir grüßen euch ihr Freunde
TTITLE1=Lieder bedeuten mein leben
TTITLE2=I hol mir a Madl
TTITLE3=Mit der Harmonika
TTITLE4=Vaterglück
TTITLE5=Tiroler Herz-Marsch
TTITLE6=Gamsalschiaß'n
TTITLE7=Sturm, Dommer, Blitz und Regen
TTITLE8=Woher das Jodeln stammt
TTITLE9=Nach schwerer Zeit
TTITLE10=Auf zum Küenz
TTITLE11=Es isch mei Hoamat
TTITLE12=Nun ist Ruh'
EXTD=
EXTT0=
EXTT1=
EXTT2=
EXTT3=
EXTT4=
EXTT5=
EXTT6=
EXTT7=
EXTT8=
EXTT9=
EXTT10=
EXTT11=
EXTT12=
PLAYORDER=
